<?xml version="1.0" encoding="UTF-8" standalone="no"?>
<!DOCTYPE svg PUBLIC "-//W3C//DTD SVG 1.1//EN"
 "http://www.w3.org/Graphics/SVG/1.1/DTD/svg11.dtd">
<!-- Generated by graphviz version 15.0.0 (20260523.1842)
 -->
<!-- Pages: 1 -->
<svg width="590pt" height="578pt"
 viewBox="0.00 0.00 590.00 578.00" xmlns="http://www.w3.org/2000/svg" xmlns:xlink="http://www.w3.org/1999/xlink">
<g id="graph0" class="graph" transform="scale(1 1) rotate(0) translate(4 573.5)">
<polygon fill="white" stroke="none" points="-4,4 -4,-573.5 585.73,-573.5 585.73,4 -4,4"/>
<g id="clust1" class="cluster">
<title>cluster_legend</title>
<polygon fill="lightgrey" stroke="black" points="489.73,-391.9 489.73,-561.5 573.73,-561.5 573.73,-391.9 489.73,-391.9"/>
<text xml:space="preserve" text-anchor="middle" x="531.73" y="-538.5" font-family="Helvetica,sans-Serif" font-size="20.00">Legend</text>
</g>
<!-- x -->
<g id="node1" class="node">
<title>x</title>
<polygon fill="#90ee90" stroke="black" stroke-dasharray="5,2" points="78.08,-524.5 15.37,-524.5 15.37,-488.5 78.08,-488.5 78.08,-524.5"/>
<text xml:space="preserve" text-anchor="start" x="18.97" y="-502.48" font-family="Helvetica,sans-Serif" font-weight="bold" font-size="12.00">x[a]</text>
<text xml:space="preserve" text-anchor="start" x="39.97" y="-502.48" font-family="Helvetica,sans-Serif" font-size="12.00"> &#160;: </text>
<text xml:space="preserve" text-anchor="start" x="51.97" y="-502.48" font-family="Helvetica,sans-Serif" font-style="italic" font-size="12.00">float</text>
</g>
<!-- make_geometry(...) → geo -->
<g id="node7" class="node">
<title>make_geometry(...) → geo</title>
<path fill="#87ceeb" stroke="black" d="M138.95,-441.25C138.95,-441.25 34.5,-441.25 34.5,-441.25 28.5,-441.25 22.5,-435.25 22.5,-429.25 22.5,-429.25 22.5,-406.55 22.5,-406.55 22.5,-400.55 28.5,-394.55 34.5,-394.55 34.5,-394.55 138.95,-394.55 138.95,-394.55 144.95,-394.55 150.95,-400.55 150.95,-406.55 150.95,-406.55 150.95,-429.25 150.95,-429.25 150.95,-435.25 144.95,-441.25 138.95,-441.25"/>
<text xml:space="preserve" text-anchor="start" x="32.72" y="-423.25" font-family="Helvetica,sans-Serif" font-weight="bold" font-size="12.00">make_geometry(...)</text>
<text xml:space="preserve" text-anchor="start" x="30.1" y="-404.5" font-family="Helvetica,sans-Serif" font-weight="bold" font-size="12.00">geo[a, b]</text>
<text xml:space="preserve" text-anchor="start" x="79.6" y="-404.5" font-family="Helvetica,sans-Serif" font-size="12.00"> &#160;: </text>
<text xml:space="preserve" text-anchor="start" x="91.6" y="-404.5" font-family="Helvetica,sans-Serif" font-style="italic" font-size="12.00">Geometry</text>
<polygon fill="black" stroke="black" points="26.1,-417.9 26.1,-417.9 147.35,-417.9 147.35,-417.9 26.1,-417.9"/>
</g>
<!-- x&#45;&gt;make_geometry(...) → geo -->
<g id="edge3" class="edge">
<title>x&#45;&gt;make_geometry(...) → geo</title>
<g id="a_edge3"><a xlink:title="&lt;b&gt;x[a]&lt;/b&gt;">
<path fill="none" stroke="#006400" stroke-width="1.01" d="M54.63,-488.39C59.47,-477.92 65.82,-464.17 71.59,-451.66"/>
<polygon fill="#006400" stroke="#006400" stroke-width="1.01" points="74.6,-453.49 75.62,-442.94 68.25,-450.55 74.6,-453.49"/>
</a>
</g>
<text xml:space="preserve" text-anchor="middle" x="76.17" y="-461" font-family="Helvetica,sans-Serif" font-size="10.00" fill="transparent">x[a]</text>
</g>
<!-- y -->
<g id="node2" class="node">
<title>y</title>
<polygon fill="#90ee90" stroke="black" stroke-dasharray="5,2" points="159.45,-524.5 96,-524.5 96,-488.5 159.45,-488.5 159.45,-524.5"/>
<text xml:space="preserve" text-anchor="start" x="99.6" y="-502.48" font-family="Helvetica,sans-Serif" font-weight="bold" font-size="12.00">y[b]</text>
<text xml:space="preserve" text-anchor="start" x="121.35" y="-502.48" font-family="Helvetica,sans-Serif" font-size="12.00"> &#160;: </text>
<text xml:space="preserve" text-anchor="start" x="133.35" y="-502.48" font-family="Helvetica,sans-Serif" font-style="italic" font-size="12.00">float</text>
</g>
<!-- y&#45;&gt;make_geometry(...) → geo -->
<g id="edge4" class="edge">
<title>y&#45;&gt;make_geometry(...) → geo</title>
<g id="a_edge4"><a xlink:title="&lt;b&gt;y[b]&lt;/b&gt;">
<path fill="none" stroke="#006400" stroke-width="1.01" d="M119.62,-488.39C114.67,-477.92 108.16,-464.17 102.24,-451.66"/>
<polygon fill="#006400" stroke="#006400" stroke-width="1.01" points="105.55,-450.48 98.1,-442.94 99.22,-453.47 105.55,-450.48"/>
</a>
</g>
<text xml:space="preserve" text-anchor="middle" x="119.15" y="-461" font-family="Helvetica,sans-Serif" font-size="10.00" fill="transparent">y[b]</text>
</g>
<!-- mesh_size -->
<g id="node3" class="node">
<title>mesh_size</title>
<polygon fill="#90ee90" stroke="black" stroke-dasharray="5,2" points="281.95,-435.9 179.5,-435.9 179.5,-399.9 281.95,-399.9 281.95,-435.9"/>
<text xml:space="preserve" text-anchor="start" x="183.1" y="-413.88" font-family="Helvetica,sans-Serif" font-weight="bold" font-size="12.00">mesh_size</text>
<text xml:space="preserve" text-anchor="start" x="243.85" y="-413.88" font-family="Helvetica,sans-Serif" font-size="12.00"> &#160;: </text>
<text xml:space="preserve" text-anchor="start" x="255.85" y="-413.88" font-family="Helvetica,sans-Serif" font-style="italic" font-size="12.00">float</text>
</g>
<!-- make_mesh(...) → mesh, coarse_mesh -->
<g id="node8" class="node">
<title>make_mesh(...) → mesh, coarse_mesh</title>
<path fill="#87ceeb" stroke="black" d="M281.82,-347.3C281.82,-347.3 185.62,-347.3 185.62,-347.3 179.62,-347.3 173.62,-341.3 173.62,-335.3 173.62,-335.3 173.62,-293.85 173.62,-293.85 173.62,-287.85 179.62,-281.85 185.62,-281.85 185.62,-281.85 281.82,-281.85 281.82,-281.85 287.82,-281.85 293.82,-287.85 293.82,-293.85 293.82,-293.85 293.82,-335.3 293.82,-335.3 293.82,-341.3 287.82,-347.3 281.82,-347.3"/>
<text xml:space="preserve" text-anchor="start" x="190.97" y="-329.3" font-family="Helvetica,sans-Serif" font-weight="bold" font-size="12.00">make_mesh(...)</text>
<text xml:space="preserve" text-anchor="start" x="204.1" y="-310.55" font-family="Helvetica,sans-Serif" font-weight="bold" font-size="12.00">mesh[a, b]</text>
<text xml:space="preserve" text-anchor="start" x="181.22" y="-291.8" font-family="Helvetica,sans-Serif" font-weight="bold" font-size="12.00">coarse_mesh[a, b]</text>
<polygon fill="black" stroke="black" points="177.22,-323.95 177.22,-323.95 290.23,-323.95 290.23,-323.95 177.22,-323.95"/>
</g>
<!-- mesh_size&#45;&gt;make_mesh(...) → mesh, coarse_mesh -->
<g id="edge6" class="edge">
<title>mesh_size&#45;&gt;make_mesh(...) → mesh, coarse_mesh</title>
<g id="a_edge6"><a xlink:title="&lt;b&gt;mesh_size&lt;/b&gt;">
<path fill="none" stroke="#90ee90" stroke-width="1.01" d="M231.23,-399.71C231.57,-388.48 232.02,-373.29 232.44,-358.9"/>
<polygon fill="#90ee90" stroke="#90ee90" stroke-width="1.01" points="235.93,-359.25 232.73,-349.15 228.94,-359.04 235.93,-359.25"/>
</a>
</g>
<text xml:space="preserve" text-anchor="middle" x="255.85" y="-367.05" font-family="Helvetica,sans-Serif" font-size="10.00" fill="transparent">mesh_size</text>
</g>
<!-- coarse_mesh_size -->
<g id="node4" class="node">
<title>coarse_mesh_size</title>
<polygon fill="#90ee90" stroke="black" stroke-dasharray="5,2" points="479.95,-435.9 299.5,-435.9 299.5,-399.9 479.95,-399.9 479.95,-435.9"/>
<text xml:space="preserve" text-anchor="start" x="303.1" y="-413.88" font-family="Helvetica,sans-Serif" font-weight="bold" font-size="12.00">coarse_mesh_size</text>
<text xml:space="preserve" text-anchor="start" x="409.6" y="-413.88" font-family="Helvetica,sans-Serif" font-size="12.00"> &#160;: </text>
<text xml:space="preserve" text-anchor="start" x="421.6" y="-413.88" font-family="Helvetica,sans-Serif" font-style="italic" font-size="12.00">float</text>
<text xml:space="preserve" text-anchor="start" x="444.1" y="-413.88" font-family="Helvetica,sans-Serif" font-size="12.00"> &#160;= 0.1</text>
</g>
<!-- coarse_mesh_size&#45;&gt;make_mesh(...) → mesh, coarse_mesh -->
<g id="edge7" class="edge">
<title>coarse_mesh_size&#45;&gt;make_mesh(...) → mesh, coarse_mesh</title>
<g id="a_edge7"><a xlink:title="&lt;b&gt;coarse_mesh_size=0.1&lt;/b&gt;">
<path fill="none" stroke="#90ee90" stroke-width="1.01" d="M362.91,-399.48C343.6,-386.94 316.81,-369.54 292.63,-353.84"/>
<polygon fill="#90ee90" stroke="#90ee90" stroke-width="1.01" points="294.74,-351.03 284.44,-348.52 290.92,-356.9 294.74,-351.03"/>
</a>
</g>
<text xml:space="preserve" text-anchor="middle" x="376.32" y="-367.05" font-family="Helvetica,sans-Serif" font-size="10.00" fill="transparent">coarse_mesh_size=0.1</text>
</g>
<!-- V_left -->
<g id="node5" class="node">
<title>V_left</title>
<polygon fill="#90ee90" stroke="black" stroke-dasharray="5,2" points="395.95,-332.58 311.5,-332.58 311.5,-296.58 395.95,-296.58 395.95,-332.58"/>
<text xml:space="preserve" text-anchor="start" x="315.1" y="-310.55" font-family="Helvetica,sans-Serif" font-weight="bold" font-size="12.00">V_left[i]</text>
<text xml:space="preserve" text-anchor="start" x="357.85" y="-310.55" font-family="Helvetica,sans-Serif" font-size="12.00"> &#160;: </text>
<text xml:space="preserve" text-anchor="start" x="369.85" y="-310.55" font-family="Helvetica,sans-Serif" font-style="italic" font-size="12.00">float</text>
</g>
<!-- run_electrostatics(...) → electrostatics -->
<g id="node10" class="node">
<title>run_electrostatics(...) → electrostatics</title>
<path fill="#87ceeb" stroke="black" d="M417.08,-234.6C417.08,-234.6 220.38,-234.6 220.38,-234.6 214.38,-234.6 208.38,-228.6 208.38,-222.6 208.38,-222.6 208.38,-199.9 208.38,-199.9 208.38,-193.9 214.38,-187.9 220.38,-187.9 220.38,-187.9 417.08,-187.9 417.08,-187.9 423.08,-187.9 429.08,-193.9 429.08,-199.9 429.08,-199.9 429.08,-222.6 429.08,-222.6 429.08,-228.6 423.08,-234.6 417.08,-234.6"/>
<text xml:space="preserve" text-anchor="start" x="259.1" y="-216.6" font-family="Helvetica,sans-Serif" font-weight="bold" font-size="12.00">run_electrostatics(...)</text>
<text xml:space="preserve" text-anchor="start" x="215.98" y="-197.85" font-family="Helvetica,sans-Serif" font-weight="bold" font-size="12.00">electrostatics[i, j, a, b]</text>
<text xml:space="preserve" text-anchor="start" x="338.23" y="-197.85" font-family="Helvetica,sans-Serif" font-size="12.00"> &#160;: </text>
<text xml:space="preserve" text-anchor="start" x="350.23" y="-197.85" font-family="Helvetica,sans-Serif" font-style="italic" font-size="12.00">Electrostatics</text>
<polygon fill="black" stroke="black" points="211.98,-211.25 211.98,-211.25 425.48,-211.25 425.48,-211.25 211.98,-211.25"/>
</g>
<!-- V_left&#45;&gt;run_electrostatics(...) → electrostatics -->
<g id="edge10" class="edge">
<title>V_left&#45;&gt;run_electrostatics(...) → electrostatics</title>
<g id="a_edge10"><a xlink:title="&lt;b&gt;V_left[i]&lt;/b&gt;">
<path fill="none" stroke="#006400" stroke-width="1.01" d="M347.79,-296.39C342.99,-282.49 336.09,-262.52 330.22,-245.52"/>
<polygon fill="#006400" stroke="#006400" stroke-width="1.01" points="333.61,-244.62 327.04,-236.31 326.99,-246.91 333.61,-244.62"/>
</a>
</g>
<text xml:space="preserve" text-anchor="middle" x="353.1" y="-254.35" font-family="Helvetica,sans-Serif" font-size="10.00" fill="transparent">V_left[i]</text>
</g>
<!-- V_right -->
<g id="node6" class="node">
<title>V_right</title>
<polygon fill="#90ee90" stroke="black" stroke-dasharray="5,2" points="507.45,-332.58 414,-332.58 414,-296.58 507.45,-296.58 507.45,-332.58"/>
<text xml:space="preserve" text-anchor="start" x="417.6" y="-310.55" font-family="Helvetica,sans-Serif" font-weight="bold" font-size="12.00">V_right[j]</text>
<text xml:space="preserve" text-anchor="start" x="469.35" y="-310.55" font-family="Helvetica,sans-Serif" font-size="12.00"> &#160;: </text>
<text xml:space="preserve" text-anchor="start" x="481.35" y="-310.55" font-family="Helvetica,sans-Serif" font-style="italic" font-size="12.00">float</text>
</g>
<!-- V_right&#45;&gt;run_electrostatics(...) → electrostatics -->
<g id="edge11" class="edge">
<title>V_right&#45;&gt;run_electrostatics(...) → electrostatics</title>
<g id="a_edge11"><a xlink:title="&lt;b&gt;V_right[j]&lt;/b&gt;">
<path fill="none" stroke="#006400" stroke-width="1.01" d="M436.31,-296.16C415.29,-281.15 384.51,-259.19 359.71,-241.5"/>
<polygon fill="#006400" stroke="#006400" stroke-width="1.01" points="361.95,-238.8 351.78,-235.84 357.89,-244.49 361.95,-238.8"/>
</a>
</g>
<text xml:space="preserve" text-anchor="middle" x="409.23" y="-254.35" font-family="Helvetica,sans-Serif" font-size="10.00" fill="transparent">V_right[j]</text>
</g>
<!-- make_geometry(...) → geo&#45;&gt;make_mesh(...) → mesh, coarse_mesh -->
<g id="edge1" class="edge">
<title>make_geometry(...) → geo&#45;&gt;make_mesh(...) → mesh, coarse_mesh</title>
<g id="a_edge1"><a xlink:title="&lt;b&gt;geo[a, b]&lt;/b&gt;">
<path fill="none" stroke="#0000ff" stroke-width="1.01" d="M119.71,-394.16C136.81,-382.38 158.16,-367.66 177.74,-354.16"/>
<polygon fill="#0000ff" stroke="#0000ff" stroke-width="1.01" points="179.68,-357.08 185.93,-348.52 175.71,-351.31 179.68,-357.08"/>
</a>
</g>
<text xml:space="preserve" text-anchor="middle" x="179.35" y="-367.05" font-family="Helvetica,sans-Serif" font-size="10.00" fill="transparent">geo[a, b]</text>
</g>
<!-- make_materials(...) → materials -->
<g id="node9" class="node">
<title>make_materials(...) → materials</title>
<path fill="#87ceeb" stroke="black" d="M143.45,-337.93C143.45,-337.93 12,-337.93 12,-337.93 6,-337.93 0,-331.93 0,-325.93 0,-325.93 0,-303.23 0,-303.23 0,-297.23 6,-291.23 12,-291.23 12,-291.23 143.45,-291.23 143.45,-291.23 149.45,-291.23 155.45,-297.23 155.45,-303.23 155.45,-303.23 155.45,-325.93 155.45,-325.93 155.45,-331.93 149.45,-337.93 143.45,-337.93"/>
<text xml:space="preserve" text-anchor="start" x="24.85" y="-319.93" font-family="Helvetica,sans-Serif" font-weight="bold" font-size="12.00">make_materials(...)</text>
<text xml:space="preserve" text-anchor="start" x="7.6" y="-301.18" font-family="Helvetica,sans-Serif" font-weight="bold" font-size="12.00">materials[a, b]</text>
<text xml:space="preserve" text-anchor="start" x="87.1" y="-301.18" font-family="Helvetica,sans-Serif" font-size="12.00"> &#160;: </text>
<text xml:space="preserve" text-anchor="start" x="99.1" y="-301.18" font-family="Helvetica,sans-Serif" font-style="italic" font-size="12.00">Materials</text>
<polygon fill="black" stroke="black" points="3.6,-314.58 3.6,-314.58 151.85,-314.58 151.85,-314.58 3.6,-314.58"/>
</g>
<!-- make_geometry(...) → geo&#45;&gt;make_materials(...) → materials -->
<g id="edge2" class="edge">
<title>make_geometry(...) → geo&#45;&gt;make_materials(...) → materials</title>
<g id="a_edge2"><a xlink:title="&lt;b&gt;geo[a, b]&lt;/b&gt;">
<path fill="none" stroke="#0000ff" stroke-width="1.01" d="M84.71,-394.16C83.54,-380.99 82.04,-364.17 80.74,-349.46"/>
<polygon fill="#0000ff" stroke="#0000ff" stroke-width="1.01" points="84.24,-349.41 79.87,-339.76 77.27,-350.03 84.24,-349.41"/>
</a>
</g>
<text xml:space="preserve" text-anchor="middle" x="102.16" y="-367.05" font-family="Helvetica,sans-Serif" font-size="10.00" fill="transparent">geo[a, b]</text>
</g>
<!-- make_mesh(...) → mesh, coarse_mesh&#45;&gt;run_electrostatics(...) → electrostatics -->
<g id="edge5" class="edge">
<title>make_mesh(...) → mesh, coarse_mesh&#45;&gt;run_electrostatics(...) → electrostatics</title>
<g id="a_edge5"><a xlink:title="&lt;b&gt;mesh[a, b]&lt;/b&gt;">
<path fill="none" stroke="#0000ff" stroke-width="1.01" d="M258.52,-281.62C266.02,-272.17 274.35,-261.88 282.23,-252.6 284.75,-249.63 287.4,-246.57 290.08,-243.52"/>
<polygon fill="#0000ff" stroke="#0000ff" stroke-width="1.01" points="292.56,-246 296.61,-236.21 287.34,-241.34 292.56,-246"/>
</a>
</g>
<text xml:space="preserve" text-anchor="middle" x="305.48" y="-254.35" font-family="Helvetica,sans-Serif" font-size="10.00" fill="transparent">mesh[a, b]</text>
</g>
<!-- make_materials(...) → materials&#45;&gt;run_electrostatics(...) → electrostatics -->
<g id="edge8" class="edge">
<title>make_materials(...) → materials&#45;&gt;run_electrostatics(...) → electrostatics</title>
<g id="a_edge8"><a xlink:title="&lt;b&gt;materials[a, b]&lt;/b&gt;">
<path fill="none" stroke="#0000ff" stroke-width="1.01" d="M123.51,-290.81C148.14,-278.88 179.2,-264.34 207.47,-252.6 218.59,-247.98 230.44,-243.37 242.11,-238.99"/>
<polygon fill="#0000ff" stroke="#0000ff" stroke-width="1.01" points="243.16,-242.34 251.32,-235.58 240.72,-235.78 243.16,-242.34"/>
</a>
</g>
<text xml:space="preserve" text-anchor="middle" x="238.6" y="-254.35" font-family="Helvetica,sans-Serif" font-size="10.00" fill="transparent">materials[a, b]</text>
</g>
<!-- get_charge(...) → charge -->
<g id="node11" class="node">
<title>get_charge(...) → charge</title>
<path fill="#87ceeb" stroke="black" d="M374.33,-140.65C374.33,-140.65 263.13,-140.65 263.13,-140.65 257.13,-140.65 251.13,-134.65 251.13,-128.65 251.13,-128.65 251.13,-105.95 251.13,-105.95 251.13,-99.95 257.13,-93.95 263.13,-93.95 263.13,-93.95 374.33,-93.95 374.33,-93.95 380.33,-93.95 386.33,-99.95 386.33,-105.95 386.33,-105.95 386.33,-128.65 386.33,-128.65 386.33,-134.65 380.33,-140.65 374.33,-140.65"/>
<text xml:space="preserve" text-anchor="start" x="278.23" y="-122.65" font-family="Helvetica,sans-Serif" font-weight="bold" font-size="12.00">get_charge(...)</text>
<text xml:space="preserve" text-anchor="start" x="258.73" y="-103.9" font-family="Helvetica,sans-Serif" font-weight="bold" font-size="12.00">charge[i, j, a, b]</text>
<text xml:space="preserve" text-anchor="start" x="344.23" y="-103.9" font-family="Helvetica,sans-Serif" font-size="12.00"> &#160;: </text>
<text xml:space="preserve" text-anchor="start" x="356.23" y="-103.9" font-family="Helvetica,sans-Serif" font-style="italic" font-size="12.00">float</text>
<polygon fill="black" stroke="black" points="254.73,-117.3 254.73,-117.3 382.73,-117.3 382.73,-117.3 254.73,-117.3"/>
</g>
<!-- run_electrostatics(...) → electrostatics&#45;&gt;get_charge(...) → charge -->
<g id="edge9" class="edge">
<title>run_electrostatics(...) → electrostatics&#45;&gt;get_charge(...) → charge</title>
<g id="a_edge9"><a xlink:title="&lt;b&gt;electrostatics[i, j, a, b]&lt;/b&gt;">
<path fill="none" stroke="#0000ff" stroke-width="1.01" d="M318.73,-187.52C318.73,-176.91 318.73,-164.06 318.73,-152.32"/>
<polygon fill="#0000ff" stroke="#0000ff" stroke-width="1.01" points="322.23,-152.62 318.73,-142.62 315.23,-152.62 322.23,-152.62"/>
</a>
</g>
<text xml:space="preserve" text-anchor="middle" x="367.48" y="-160.4" font-family="Helvetica,sans-Serif" font-size="10.00" fill="transparent">electrostatics[i, j, a, b]</text>
</g>
<!-- average_charge(...) → average_charge -->
<g id="node12" class="node">
<title>average_charge(...) → average_charge</title>
<path fill="#87ceeb" stroke="black" d="M391.58,-46.7C391.58,-46.7 245.88,-46.7 245.88,-46.7 239.88,-46.7 233.88,-40.7 233.88,-34.7 233.88,-34.7 233.88,-12 233.88,-12 233.88,-6 239.88,0 245.88,0 245.88,0 391.58,0 391.58,0 397.58,0 403.58,-6 403.58,-12 403.58,-12 403.58,-34.7 403.58,-34.7 403.58,-40.7 397.58,-46.7 391.58,-46.7"/>
<text xml:space="preserve" text-anchor="start" x="264.35" y="-28.7" font-family="Helvetica,sans-Serif" font-weight="bold" font-size="12.00">average_charge(...)</text>
<text xml:space="preserve" text-anchor="start" x="241.48" y="-9.95" font-family="Helvetica,sans-Serif" font-weight="bold" font-size="12.00">average_charge[a, b]</text>
<text xml:space="preserve" text-anchor="start" x="361.48" y="-9.95" font-family="Helvetica,sans-Serif" font-size="12.00"> &#160;: </text>
<text xml:space="preserve" text-anchor="start" x="373.48" y="-9.95" font-family="Helvetica,sans-Serif" font-style="italic" font-size="12.00">float</text>
<polygon fill="black" stroke="black" points="237.48,-23.35 237.48,-23.35 399.98,-23.35 399.98,-23.35 237.48,-23.35"/>
</g>
<!-- get_charge(...) → charge&#45;&gt;average_charge(...) → average_charge -->
<g id="edge12" class="edge">
<title>get_charge(...) → charge&#45;&gt;average_charge(...) → average_charge</title>
<g id="a_edge12"><a xlink:title="&lt;b&gt;charge[:, :, a, b]&lt;/b&gt;">
<path fill="none" stroke="#0000ff" stroke-width="1.01" d="M318.73,-93.57C318.73,-82.96 318.73,-70.11 318.73,-58.37"/>
<polygon fill="#0000ff" stroke="#0000ff" stroke-width="1.01" points="322.23,-58.67 318.73,-48.67 315.23,-58.67 322.23,-58.67"/>
</a>
</g>
<text xml:space="preserve" text-anchor="middle" x="353.6" y="-66.45" font-family="Helvetica,sans-Serif" font-size="10.00" fill="transparent">charge[:, :, a, b]</text>
</g>
<!-- legend_0 -->
<g id="node13" class="node">
<title>legend_0</title>
<polygon fill="#90ee90" stroke="black" stroke-dasharray="5,2" points="565.6,-524.5 497.85,-524.5 497.85,-488.5 565.6,-488.5 565.6,-524.5"/>
<text xml:space="preserve" text-anchor="middle" x="531.73" y="-501.48" font-family="Helvetica,sans-Serif" font-size="12.00">Argument</text>
</g>
<!-- legend_1 -->
<g id="node14" class="node">
<title>legend_1</title>
<path fill="#87ceeb" stroke="black" d="M553.6,-435.9C553.6,-435.9 509.85,-435.9 509.85,-435.9 503.85,-435.9 497.85,-429.9 497.85,-423.9 497.85,-423.9 497.85,-411.9 497.85,-411.9 497.85,-405.9 503.85,-399.9 509.85,-399.9 509.85,-399.9 553.6,-399.9 553.6,-399.9 559.6,-399.9 565.6,-405.9 565.6,-411.9 565.6,-411.9 565.6,-423.9 565.6,-423.9 565.6,-429.9 559.6,-435.9 553.6,-435.9"/>
<text xml:space="preserve" text-anchor="middle" x="531.73" y="-412.88" font-family="Helvetica,sans-Serif" font-size="12.00">PipeFunc</text>
</g>
<!-- legend_0&#45;&gt;legend_1 -->
</g>
</svg>
